<svg width="244" height="49" viewBox="0 0 244 49" fill="none" xmlns="http://www.w3.org/2000/svg">
<path d="M0.768 17.536H16.192V23.424C16.8747 21.4613 17.92 19.8827 19.328 18.688C20.736 17.4933 22.8693 16.896 25.728 16.896C32.3413 16.896 35.648 20.4587 35.648 27.584V46.848H39.232V48H21.12V46.848H23.744V26.048C23.744 23.488 23.5733 21.8453 23.232 21.12C22.8907 20.352 22.272 19.968 21.376 19.968C20.0107 19.968 18.7947 20.864 17.728 22.656C16.704 24.448 16.192 26.624 16.192 29.184V46.848H18.944V48H0.768V46.848H4.288V18.688H0.768V17.536ZM55.4375 32.96H57.2935V28.032C57.2935 23.9787 57.0588 21.2693 56.5895 19.904C56.1628 18.496 55.3095 17.792 54.0295 17.792C53.2615 17.792 52.5575 18.0053 51.9175 18.432C51.3202 18.816 51.0215 19.3707 51.0215 20.096C51.0215 20.7787 51.1495 21.4827 51.4055 22.208H53.0055C53.3468 23.104 53.5175 24.192 53.5175 25.472C53.5175 26.7093 52.9842 27.7973 51.9175 28.736C50.8508 29.632 49.5068 30.08 47.8855 30.08C44.2162 30.08 42.3815 28.3093 42.3815 24.768C42.3815 19.52 46.8402 16.896 55.7575 16.896C60.8348 16.896 64.3335 17.7707 66.2535 19.52C68.2162 21.2267 69.1975 24.384 69.1975 28.992V41.984C69.1975 44.2027 69.8162 45.312 71.0535 45.312C72.5042 45.312 73.3575 43.1147 73.6135 38.72L74.5735 38.784C74.4028 42.5387 73.6988 45.12 72.4615 46.528C71.2242 47.936 69.1975 48.64 66.3815 48.64C61.2615 48.64 58.3175 47.0613 57.5495 43.904C56.9948 45.5253 56.1628 46.72 55.0535 47.488C53.9442 48.256 52.3228 48.64 50.1895 48.64C43.8748 48.64 40.7175 46.0587 40.7175 40.896C40.7175 37.8667 41.9122 35.7973 44.3015 34.688C46.7335 33.536 50.4455 32.96 55.4375 32.96ZM52.8775 40.832C52.8775 43.0507 52.9842 44.48 53.1975 45.12C53.4535 45.76 53.9015 46.08 54.5415 46.08C55.2242 46.08 55.8428 45.5467 56.3975 44.48C56.9948 43.3707 57.2935 41.856 57.2935 39.936V33.984H56.8455C54.2002 33.984 52.8775 35.9253 52.8775 39.808V40.832ZM112.018 48H97.4255L96.7215 43.328C96.0388 45.0347 95.0148 46.3573 93.6495 47.296C92.3268 48.192 90.3428 48.64 87.6975 48.64C81.0842 48.64 77.7775 45.0773 77.7775 37.952V18.688H74.1935V17.536H89.6815V39.488C89.6815 42.048 89.8522 43.7333 90.1935 44.544C90.5775 45.3547 91.3028 45.76 92.3695 45.76C93.4788 45.76 94.4602 45.0987 95.3135 43.776C96.1668 42.4533 96.5935 40.6187 96.5935 38.272V18.688H93.6495V17.536H108.498V46.848H112.018V48ZM116.528 38.848V18.688H113.008V17.536H116.528V9.28L128.432 6.336V17.536H136.752V18.688H128.432V40.256C128.432 42.2613 128.624 43.7333 129.008 44.672C129.434 45.6107 130.288 46.08 131.568 46.08C132.848 46.08 133.957 45.44 134.896 44.16C135.877 42.88 136.517 41.1307 136.816 38.912L137.904 39.04C137.562 41.984 136.624 44.3307 135.088 46.08C133.552 47.7867 131.013 48.64 127.472 48.64C123.93 48.64 121.221 47.936 119.344 46.528C117.466 45.12 116.528 42.56 116.528 38.848ZM147.923 13.12C145.662 13.12 144.04 12.544 143.059 11.392C142.12 10.24 141.651 8.81066 141.651 7.104C141.651 5.39733 142.163 3.98933 143.187 2.88C144.254 1.77067 145.854 1.216 147.987 1.216C150.12 1.216 151.742 1.728 152.851 2.752C153.96 3.73333 154.515 5.16267 154.515 7.04C154.515 8.87467 153.982 10.3467 152.915 11.456C151.848 12.5653 150.184 13.12 147.923 13.12ZM138.259 17.536H153.939V46.848H157.523V48H138.515V46.848H142.035V18.688H138.259V17.536ZM158.572 -3.8147e-06H174.252V46.848H177.836V48H158.828V46.848H162.348V1.152H158.572V-3.8147e-06ZM216.205 48H201.613L200.909 43.328C200.226 45.0347 199.202 46.3573 197.837 47.296C196.514 48.192 194.53 48.64 191.885 48.64C185.272 48.64 181.965 45.0773 181.965 37.952V18.688H178.381V17.536H193.869V39.488C193.869 42.048 194.04 43.7333 194.381 44.544C194.765 45.3547 195.49 45.76 196.557 45.76C197.666 45.76 198.648 45.0987 199.501 43.776C200.354 42.4533 200.781 40.6187 200.781 38.272V18.688H197.837V17.536H212.685V46.848H216.205V48ZM218.987 48.64V37.184H219.755C220.864 40.896 222.358 43.4987 224.235 44.992C226.112 46.4853 228.459 47.232 231.275 47.232C235.627 47.232 237.803 45.8453 237.803 43.072C237.803 41.8773 237.27 40.9813 236.203 40.384C234.539 39.4453 232.406 38.72 229.803 38.208C226.902 37.44 224.47 36.416 222.507 35.136C220.16 33.6 218.987 31.168 218.987 27.84C218.987 24.512 220.011 21.8667 222.059 19.904C224.107 17.8987 226.838 16.896 230.251 16.896C232.342 16.896 234.496 17.3867 236.715 18.368C237.526 18.7093 238.144 18.88 238.571 18.88C238.998 18.88 239.36 18.7307 239.659 18.432C239.958 18.1333 240.32 17.5787 240.747 16.768H241.451V26.56H240.683C238.507 21.0133 235.136 18.24 230.571 18.24C228.566 18.24 227.072 18.6027 226.091 19.328C225.11 20.0107 224.619 20.8853 224.619 21.952C224.619 22.592 224.768 23.104 225.067 23.488C225.366 23.8293 225.6 24.0853 225.771 24.256C225.942 24.4267 226.219 24.6187 226.603 24.832C226.987 25.0027 227.307 25.152 227.563 25.28C227.819 25.3653 228.203 25.4933 228.715 25.664C229.27 25.8347 229.675 25.9413 229.931 25.984C232.832 26.7093 234.923 27.3493 236.203 27.904C237.483 28.416 238.699 29.056 239.851 29.824C242.198 31.4453 243.371 34.0693 243.371 37.696C243.371 41.28 242.304 44.0107 240.171 45.888C238.038 47.7227 235.115 48.64 231.403 48.64C228.758 48.64 226.198 48.0213 223.723 46.784C223.211 46.4427 222.806 46.272 222.507 46.272C221.568 46.272 220.651 47.0613 219.755 48.64H218.987Z" fill="white"/>
</svg>
